<mxfile host="app.diagrams.net" agent="Mozilla/5.0 (Windows NT 10.0; Win64; x64; rv:130.0) Gecko/20100101 Firefox/130.0" version="24.7.13">
  <diagram name="Página-1" id="Ypu8OsYglnfb_UtlTAKa">
    <mxGraphModel grid="1" page="1" gridSize="10" guides="1" tooltips="1" connect="1" arrows="1" fold="1" pageScale="1" pageWidth="827" pageHeight="1169" math="0" shadow="0">
      <root>
        <mxCell id="0" />
        <mxCell id="1" parent="0" />
        <mxCell id="TO_tf0VaPSmE9_xhrCwz-1" value="" style="whiteSpace=wrap;html=1;aspect=fixed;" vertex="1" parent="1">
          <mxGeometry x="80" y="70" width="810" height="810" as="geometry" />
        </mxCell>
        <mxCell id="TO_tf0VaPSmE9_xhrCwz-12" style="edgeStyle=orthogonalEdgeStyle;rounded=0;orthogonalLoop=1;jettySize=auto;html=1;exitX=0.5;exitY=0.5;exitDx=0;exitDy=0;exitPerimeter=0;entryX=0;entryY=0.5;entryDx=0;entryDy=0;" edge="1" parent="1" source="TO_tf0VaPSmE9_xhrCwz-2" target="TO_tf0VaPSmE9_xhrCwz-3">
          <mxGeometry relative="1" as="geometry" />
        </mxCell>
        <mxCell id="TO_tf0VaPSmE9_xhrCwz-2" value="&lt;div&gt;Usuario&lt;/div&gt;&lt;div&gt;administrador&lt;/div&gt;" style="shape=umlActor;verticalLabelPosition=bottom;verticalAlign=top;html=1;outlineConnect=0;" vertex="1" parent="1">
          <mxGeometry x="30" y="230" width="30" height="60" as="geometry" />
        </mxCell>
        <mxCell id="TO_tf0VaPSmE9_xhrCwz-13" style="edgeStyle=orthogonalEdgeStyle;rounded=0;orthogonalLoop=1;jettySize=auto;html=1;exitX=1;exitY=0.5;exitDx=0;exitDy=0;entryX=0;entryY=0.5;entryDx=0;entryDy=0;" edge="1" parent="1" source="TO_tf0VaPSmE9_xhrCwz-3" target="TO_tf0VaPSmE9_xhrCwz-4">
          <mxGeometry relative="1" as="geometry">
            <Array as="points">
              <mxPoint x="190" y="260" />
              <mxPoint x="190" y="260" />
            </Array>
          </mxGeometry>
        </mxCell>
        <mxCell id="TO_tf0VaPSmE9_xhrCwz-3" value="&lt;div&gt;Iniciar sesión&lt;/div&gt;" style="ellipse;whiteSpace=wrap;html=1;" vertex="1" parent="1">
          <mxGeometry x="90" y="230" width="90" height="60" as="geometry" />
        </mxCell>
        <mxCell id="TO_tf0VaPSmE9_xhrCwz-14" style="edgeStyle=orthogonalEdgeStyle;rounded=0;orthogonalLoop=1;jettySize=auto;html=1;exitX=1;exitY=0.5;exitDx=0;exitDy=0;entryX=0;entryY=0.5;entryDx=0;entryDy=0;" edge="1" parent="1" source="TO_tf0VaPSmE9_xhrCwz-4" target="TO_tf0VaPSmE9_xhrCwz-5">
          <mxGeometry relative="1" as="geometry">
            <Array as="points">
              <mxPoint x="310" y="260" />
              <mxPoint x="310" y="260" />
            </Array>
          </mxGeometry>
        </mxCell>
        <mxCell id="TO_tf0VaPSmE9_xhrCwz-4" value="&lt;div&gt;Acceder al&lt;/div&gt;&lt;div&gt;menú&lt;br&gt;&lt;/div&gt;" style="ellipse;whiteSpace=wrap;html=1;" vertex="1" parent="1">
          <mxGeometry x="210" y="230" width="90" height="60" as="geometry" />
        </mxCell>
        <mxCell id="TO_tf0VaPSmE9_xhrCwz-15" style="edgeStyle=orthogonalEdgeStyle;rounded=0;orthogonalLoop=1;jettySize=auto;html=1;exitX=1;exitY=0.5;exitDx=0;exitDy=0;entryX=0;entryY=0.5;entryDx=0;entryDy=0;" edge="1" parent="1" source="TO_tf0VaPSmE9_xhrCwz-5" target="TO_tf0VaPSmE9_xhrCwz-6">
          <mxGeometry relative="1" as="geometry">
            <Array as="points">
              <mxPoint x="430" y="260" />
              <mxPoint x="430" y="200" />
            </Array>
          </mxGeometry>
        </mxCell>
        <mxCell id="rzP6jq3osXc6Dp9xJEug-2" style="edgeStyle=orthogonalEdgeStyle;rounded=0;orthogonalLoop=1;jettySize=auto;html=1;exitX=1;exitY=0.5;exitDx=0;exitDy=0;entryX=0;entryY=0.5;entryDx=0;entryDy=0;" edge="1" parent="1" source="TO_tf0VaPSmE9_xhrCwz-5" target="rzP6jq3osXc6Dp9xJEug-1">
          <mxGeometry relative="1" as="geometry">
            <Array as="points">
              <mxPoint x="430" y="260" />
              <mxPoint x="430" y="330" />
            </Array>
          </mxGeometry>
        </mxCell>
        <mxCell id="TO_tf0VaPSmE9_xhrCwz-5" value="&lt;div&gt;Seleccionar&lt;/div&gt;&lt;div&gt;dispositivo&lt;/div&gt;" style="ellipse;whiteSpace=wrap;html=1;" vertex="1" parent="1">
          <mxGeometry x="323.5" y="230" width="90" height="60" as="geometry" />
        </mxCell>
        <mxCell id="rzP6jq3osXc6Dp9xJEug-4" style="edgeStyle=orthogonalEdgeStyle;rounded=0;orthogonalLoop=1;jettySize=auto;html=1;exitX=1;exitY=0.5;exitDx=0;exitDy=0;entryX=0;entryY=0.5;entryDx=0;entryDy=0;" edge="1" parent="1" source="TO_tf0VaPSmE9_xhrCwz-6" target="rzP6jq3osXc6Dp9xJEug-3">
          <mxGeometry relative="1" as="geometry" />
        </mxCell>
        <mxCell id="TO_tf0VaPSmE9_xhrCwz-6" value="&lt;div&gt;Agregar&lt;/div&gt;&lt;div&gt;dispositivo&lt;/div&gt;" style="ellipse;whiteSpace=wrap;html=1;" vertex="1" parent="1">
          <mxGeometry x="440" y="170" width="90" height="60" as="geometry" />
        </mxCell>
        <mxCell id="rzP6jq3osXc6Dp9xJEug-10" style="edgeStyle=orthogonalEdgeStyle;rounded=0;orthogonalLoop=1;jettySize=auto;html=1;exitX=1;exitY=0.5;exitDx=0;exitDy=0;entryX=0;entryY=0.5;entryDx=0;entryDy=0;" edge="1" parent="1" source="rzP6jq3osXc6Dp9xJEug-1" target="rzP6jq3osXc6Dp9xJEug-9">
          <mxGeometry relative="1" as="geometry" />
        </mxCell>
        <mxCell id="rzP6jq3osXc6Dp9xJEug-1" value="&lt;div&gt;Eliminar&lt;/div&gt;&lt;div&gt;dispositivo&lt;/div&gt;" style="ellipse;whiteSpace=wrap;html=1;" vertex="1" parent="1">
          <mxGeometry x="440" y="300" width="90" height="60" as="geometry" />
        </mxCell>
        <mxCell id="rzP6jq3osXc6Dp9xJEug-6" style="edgeStyle=orthogonalEdgeStyle;rounded=0;orthogonalLoop=1;jettySize=auto;html=1;exitX=1;exitY=0.5;exitDx=0;exitDy=0;entryX=0;entryY=0.5;entryDx=0;entryDy=0;" edge="1" parent="1" source="rzP6jq3osXc6Dp9xJEug-3" target="rzP6jq3osXc6Dp9xJEug-5">
          <mxGeometry relative="1" as="geometry" />
        </mxCell>
        <mxCell id="rzP6jq3osXc6Dp9xJEug-3" value="&lt;div&gt;Ingresar&lt;/div&gt;&lt;div&gt;datos&lt;/div&gt;" style="ellipse;whiteSpace=wrap;html=1;" vertex="1" parent="1">
          <mxGeometry x="550" y="170" width="90" height="60" as="geometry" />
        </mxCell>
        <mxCell id="rzP6jq3osXc6Dp9xJEug-8" style="edgeStyle=orthogonalEdgeStyle;rounded=0;orthogonalLoop=1;jettySize=auto;html=1;exitX=1;exitY=0.5;exitDx=0;exitDy=0;entryX=0;entryY=0.5;entryDx=0;entryDy=0;" edge="1" parent="1" source="rzP6jq3osXc6Dp9xJEug-5" target="rzP6jq3osXc6Dp9xJEug-7">
          <mxGeometry relative="1" as="geometry" />
        </mxCell>
        <mxCell id="rzP6jq3osXc6Dp9xJEug-5" value="&lt;div&gt;Confirmar&lt;/div&gt;&lt;div&gt;dispositivo&lt;/div&gt;" style="ellipse;whiteSpace=wrap;html=1;" vertex="1" parent="1">
          <mxGeometry x="660" y="170" width="90" height="60" as="geometry" />
        </mxCell>
        <mxCell id="rzP6jq3osXc6Dp9xJEug-7" value="&lt;div&gt;Se muestra&lt;/div&gt;&lt;div&gt;diagrama&lt;/div&gt;&lt;div&gt;actualizado&lt;br&gt;&lt;/div&gt;" style="ellipse;whiteSpace=wrap;html=1;" vertex="1" parent="1">
          <mxGeometry x="790" y="230" width="90" height="60" as="geometry" />
        </mxCell>
        <mxCell id="rzP6jq3osXc6Dp9xJEug-12" style="edgeStyle=orthogonalEdgeStyle;rounded=0;orthogonalLoop=1;jettySize=auto;html=1;exitX=1;exitY=0.5;exitDx=0;exitDy=0;entryX=0;entryY=0.5;entryDx=0;entryDy=0;" edge="1" parent="1" source="rzP6jq3osXc6Dp9xJEug-9" target="rzP6jq3osXc6Dp9xJEug-11">
          <mxGeometry relative="1" as="geometry" />
        </mxCell>
        <mxCell id="rzP6jq3osXc6Dp9xJEug-9" value="&lt;div&gt;Seleccionar&lt;/div&gt;&lt;div&gt;dispositivo&lt;br&gt;&lt;/div&gt;" style="ellipse;whiteSpace=wrap;html=1;" vertex="1" parent="1">
          <mxGeometry x="550" y="300" width="90" height="60" as="geometry" />
        </mxCell>
        <mxCell id="rzP6jq3osXc6Dp9xJEug-13" style="edgeStyle=orthogonalEdgeStyle;rounded=0;orthogonalLoop=1;jettySize=auto;html=1;exitX=1;exitY=0.5;exitDx=0;exitDy=0;entryX=0;entryY=0.5;entryDx=0;entryDy=0;" edge="1" parent="1" source="rzP6jq3osXc6Dp9xJEug-11" target="rzP6jq3osXc6Dp9xJEug-7">
          <mxGeometry relative="1" as="geometry" />
        </mxCell>
        <mxCell id="rzP6jq3osXc6Dp9xJEug-11" value="&lt;div&gt;Confirmar&lt;/div&gt;&lt;div&gt;eliminación&lt;br&gt;&lt;/div&gt;" style="ellipse;whiteSpace=wrap;html=1;" vertex="1" parent="1">
          <mxGeometry x="660" y="300" width="90" height="60" as="geometry" />
        </mxCell>
      </root>
    </mxGraphModel>
  </diagram>
</mxfile>
